<svg xmlns="http://www.w3.org/2000/svg" viewBox="0 0 100 100"><path fill="#333" d="M21.7 0v100h6.6V0Z"/><path fill="#1a1a1a" d="M0 75h100"/><path fill="#333" d="M0 71.7v6.6h100v-6.6z"/><path fill="#f55" d="M37.4 93.17v-73h8.28v32.55q0 11.94 11.48 11.94 7.72 0 10.91-4.7 3.2-4.7 3.2-13.55V20.17h8.28v39.32q0 2.92 1.13 4.14 1.13 1.13 2.73 1.13.75 0 1.6-.19l1.22-.28v6.02q-.66.37-2.16.75-1.5.47-3.1.47-3.49 0-5.84-1.7-2.26-1.69-3.3-6.01h-.65q-2.35 3.76-5.83 5.74-3.48 1.97-8.75 1.97-3.67 0-6.4-1.13-2.73-1.22-4.61-3.1h-.38q.2 1.7.29 4.51.18 2.83.18 6.68v14.68z"/></svg>
